<svg fill="none" height="48" viewBox="0 0 61 48" width="61" xmlns="http://www.w3.org/2000/svg"
  xmlns:xlink="http://www.w3.org/1999/xlink">
  <clipPath id="a">
    <path d="m0 0h60.2099v48h-60.2099z" />
  </clipPath>
  <g clip-path="url(#a)">
    <path
      d="m42.2721 27.5456-5.5276-19.5456h-12.4103v5.238c-1.6171-3.1391-5.5229-5.02255-10.9694-5.02255-6.39861 0-12.10454 3.00475-12.410337 10.05895h8.187067c.26178-2.1777 1.82787-3.2642 3.96147-3.2642 1.7838 0 3.5677.7367 3.5677 2.7429 0 2.8704-3.0024 3.1322-5.3978 3.1322v5.3584c2.1753 0 5.6596.3035 5.6596 3.3962 0 1.7838-1.3947 3.57-4.0472 3.57-2.8287 0-4.35305-1.7005-4.35305-4.5268h-8.53225c0 7.5315 5.26808 11.3169 12.408 11.3169 5.56 0 9.7578-1.6912 11.9285-4.9623v4.3136h9.2319v-10.6265c0-2.5275-.3498-6.7484-.6533-9.4913h.088l5.7013 20.1155h7.1399l5.7013-20.1155h.0881c-.3915 3.6116-.6533 7.0102-.6533 10.5338v9.5794h9.2295v-31.3467h-12.4057zm-17.9379-2.8355c-.7112-.7947-1.6286-1.4317-2.7406-1.865 1.2649-.6208 2.1614-1.4641 2.7406-2.5043z"
      fill="#8B949E" />
  </g>
</svg>
