<svg xmlns="http://www.w3.org/2000/svg" width="791" height="791" fill="none"><g opacity=".1"><path stroke="#fff" stroke-miterlimit="10" stroke-width="2" d="M529.197 644.147c137.681-74.018 189.289-245.635 115.27-383.315-74.018-137.681-245.635-189.29-383.315-115.271-137.681 74.019-189.29 245.635-115.271 383.316 74.019 137.681 245.635 189.289 383.316 115.27Z" style="stroke:#fff;stroke-opacity:1"/><path stroke="#fff" stroke-miterlimit="10" stroke-width="2" d="M510.465 11.525 11.882 279.568l268.043 498.583 498.583-268.043L510.465 11.525Z" style="stroke:#fff;stroke-opacity:1"/><path fill="#fff" d="M16.432 288.115a8.99 8.99 0 0 0 3.662-12.175 8.99 8.99 0 1 0-3.661 12.175ZM514.973 20.093a8.99 8.99 0 1 0-8.513-15.836 8.99 8.99 0 0 0 8.513 15.836ZM284.454 786.656a8.99 8.99 0 0 0 3.661-12.175 8.991 8.991 0 1 0-3.661 12.175ZM782.994 518.634a8.99 8.99 0 0 0-8.514-15.836 8.989 8.989 0 0 0-3.661 12.175 8.989 8.989 0 0 0 12.175 3.661Z" style="fill:#fff;fill-opacity:1"/></g></svg>