<svg width="72" height="36" viewBox="0 0 72 36" fill="none" xmlns="http://www.w3.org/2000/svg">
  <path fill-rule="evenodd" clip-rule="evenodd"
    d="M0.0605469 35.7288V0.302979H71.6787L36.2529 35.7288H0.0605469ZM41.422 17.2518H42.9744C45.0468 17.2518 46.6964 16.5658 46.6964 14.3769C46.6964 12.2575 45.0468 11.5746 42.9744 11.5746H41.422V17.2518ZM24.0083 20.9101C24.7311 21.1775 25.4959 21.3131 26.2666 21.3105H26.269C27.023 21.3111 27.7715 21.1821 28.4818 20.9292L26.2921 13.8584H26.2442L24.0083 20.9101ZM35.5135 6.96234H42.5628L42.562 6.96952C49.3009 6.96952 52.4662 9.36979 52.4662 14.6027C52.4662 19.3043 49.2068 22.1058 43.7027 22.1058H41.4236V28.8783H30.9786L29.9448 25.6396C28.84 26.0034 27.5916 26.2028 26.2682 26.2028C24.9121 26.2028 23.631 25.989 22.5062 25.6085L21.4309 28.8783H15.0294L15.7346 26.983L15.4761 27.2087C13.8799 28.4914 11.8825 29.1974 9.40963 29.2452H9.04189C6.24379 29.2358 3.49545 28.5047 1.06252 27.1226L3.23943 22.7966C5.59903 24.191 7.08035 24.5021 9.07779 24.4622C10.114 24.4391 10.863 24.2516 11.3504 23.7451C11.6464 23.442 11.7987 23.0583 11.8147 22.6491C11.833 21.5251 10.2344 20.9978 8.2761 20.394C6.68868 19.8962 4.89147 19.2317 3.48273 18.1995C1.81794 16.9734 1.02263 15.4403 1.06252 13.2801C1.08884 11.7031 1.67196 10.2863 2.74965 9.16638C4.30037 7.5654 6.80036 6.58742 9.8005 6.58742H9.81645C12.3882 6.593 15.532 7.3205 17.8006 8.47956L15.3517 12.7456C12.8653 11.5435 11.6129 11.4286 10.193 11.3569C8.08625 11.2444 7.01813 11.9974 7.00218 12.8095C6.98383 13.8026 9.00201 14.6992 10.8981 15.3095C13.7746 16.2212 17.4337 17.4441 17.9897 20.9763L23.2513 6.96234H29.3553L35.5135 23.7244V6.96234Z"
    fill="#8B949E" />
  <path
    d="M45.9037 32.107V34.7498H46.3026V33.6027H46.7509L47.4736 34.7498H47.9227L47.1498 33.6027C47.5358 33.5549 47.8477 33.3299 47.8477 32.8545C47.8477 32.3344 47.5287 32.107 46.9009 32.107H45.9037ZM46.3026 32.4564H46.8506C47.1202 32.4564 47.4242 32.4995 47.4242 32.8298C47.4242 33.2422 47.1162 33.2789 46.7756 33.2789H46.3026V32.4564ZM46.8012 31.1346C45.536 31.1346 44.4575 32.1094 44.4575 33.428C44.4575 34.7562 45.536 35.7461 46.8012 35.7461C47.1046 35.7469 47.4052 35.6873 47.6854 35.5708C47.9656 35.4542 48.2199 35.2831 48.4333 35.0674C48.6467 34.8516 48.8151 34.5956 48.9287 34.3141C49.0422 34.0327 49.0986 33.7315 49.0945 33.428C49.0945 32.1094 48.0488 31.1346 46.8012 31.1346ZM46.8012 31.5088C47.8334 31.5088 48.6454 32.3424 48.6454 33.428C48.6454 34.532 47.8334 35.3473 46.8012 35.3473C45.7514 35.3473 44.9066 34.532 44.9066 33.428C44.9066 32.3432 45.7514 31.5088 46.8012 31.5088Z"
    fill="#8B949E" />
</svg>
