<svg width="844" height="844" viewBox="0 0 844 844" fill="none" xmlns="http://www.w3.org/2000/svg">
<g opacity="0.2">
<rect x="1.66113" y="421.801" width="198.369" height="198.369" transform="rotate(-45 1.66113 421.801)" stroke="white"/>
<rect x="282.198" y="421.8" width="198.369" height="198.369" transform="rotate(-45 282.198 421.8)" stroke="white"/>
<rect x="282.196" y="702.336" width="198.369" height="198.369" transform="rotate(-45 282.196 702.336)" stroke="white"/>
<rect x="282.194" y="141.268" width="198.369" height="198.369" transform="rotate(-45 282.194 141.268)" stroke="white"/>
<rect x="562.729" y="421.803" width="198.369" height="198.369" transform="rotate(-45 562.729 421.803)" stroke="white"/>
<path d="M213.097 490.903L353.365 631.171" stroke="white"/>
<path d="M494.457 209.541L521.932 237.016C546.292 261.376 546.292 300.871 521.932 325.231L494.044 353.12" stroke="white"/>
<circle cx="282.231" cy="421.801" r="11.7262" transform="rotate(-45 282.231 421.801)" fill="white"/>
<circle cx="634.763" cy="349.8" r="11.7262" transform="rotate(-45 634.763 349.8)" fill="white"/>
</g>
</svg>
